<?xml version="1.0" encoding="UTF-8"?>
<svg xmlns="http://www.w3.org/2000/svg" xmlns:xlink="http://www.w3.org/1999/xlink" width="16pt" height="16pt" viewBox="0 0 16 16" version="1.1">
<g id="surface1">
<path style=" stroke:none;fill-rule:nonzero;fill:rgb(0%,0%,0%);fill-opacity:1;" d="M 15.789062 8.074219 C 15.789062 12.4375 12.65625 15.542969 8.023438 15.542969 C 3.585938 15.542969 0 12.125 0 7.894531 C 0 3.664062 3.585938 0.246094 8.023438 0.246094 C 10.183594 0.246094 12.003906 1.003906 13.40625 2.25 L 11.222656 4.25 C 8.363281 1.621094 3.050781 3.59375 3.050781 7.894531 C 3.050781 10.5625 5.289062 12.722656 8.023438 12.722656 C 11.199219 12.722656 12.394531 10.554688 12.578125 9.429688 L 8.023438 9.429688 L 8.023438 6.796875 L 15.660156 6.796875 C 15.734375 7.1875 15.789062 7.566406 15.789062 8.074219 Z M 15.789062 8.074219 "/>
</g>
</svg>
