<?xml version="1.0" encoding="UTF-8"?>
<svg xmlns="http://www.w3.org/2000/svg" xmlns:xlink="http://www.w3.org/1999/xlink" width="14pt" height="14pt" viewBox="0 0 14 14" version="1.1">
<g id="surface1">
<path style=" stroke:none;fill-rule:nonzero;fill:rgb(0%,0%,0%);fill-opacity:1;" d="M 3.054688 12.089844 L 0.222656 12.089844 L 0.222656 4.019531 L 3.054688 4.019531 Z M 1.636719 2.917969 C 0.730469 2.917969 0 2.253906 0 1.449219 C 0 0.652344 0.730469 0 1.636719 0 C 2.542969 0 3.273438 0.652344 3.273438 1.449219 C 3.273438 2.253906 2.542969 2.917969 1.636719 2.917969 Z M 13.628906 12.089844 L 10.8125 12.089844 L 10.8125 8.160156 C 10.8125 7.222656 10.789062 6.023438 9.339844 6.023438 C 7.871094 6.023438 7.644531 7.039062 7.644531 8.089844 L 7.644531 12.089844 L 4.820312 12.089844 L 4.820312 4.019531 L 7.535156 4.019531 L 7.535156 5.121094 L 7.574219 5.121094 C 7.953125 4.488281 8.871094 3.8125 10.246094 3.8125 C 13.105469 3.8125 13.632812 5.484375 13.632812 7.65625 L 13.632812 12.089844 Z M 13.628906 12.089844 "/>
</g>
</svg>
