<?xml version="1.0" encoding="UTF-8"?>
<svg xmlns="http://www.w3.org/2000/svg" xmlns:xlink="http://www.w3.org/1999/xlink" width="12pt" height="15pt" viewBox="0 0 12 15" version="1.1">
<g id="surface1">
<path style=" stroke:none;fill-rule:nonzero;fill:rgb(0%,0%,0%);fill-opacity:1;" d="M 6.292969 0.191406 C 3.128906 0.191406 0 2.195312 0 5.4375 C 0 7.5 1.222656 8.671875 1.960938 8.671875 C 2.265625 8.671875 2.441406 7.863281 2.441406 7.636719 C 2.441406 7.363281 1.710938 6.78125 1.710938 5.648438 C 1.710938 3.292969 3.597656 1.621094 6.042969 1.621094 C 8.140625 1.621094 9.695312 2.757812 9.695312 4.839844 C 9.695312 6.394531 9.039062 9.3125 6.910156 9.3125 C 6.144531 9.3125 5.484375 8.785156 5.484375 8.03125 C 5.484375 6.921875 6.300781 5.851562 6.300781 4.707031 C 6.300781 2.769531 3.40625 3.121094 3.40625 5.464844 C 3.40625 5.957031 3.46875 6.5 3.699219 6.949219 C 3.273438 8.691406 2.40625 11.28125 2.40625 13.074219 C 2.40625 13.628906 2.488281 14.175781 2.542969 14.726562 C 2.648438 14.839844 2.597656 14.828125 2.757812 14.769531 C 4.3125 12.75 4.253906 12.355469 4.957031 9.707031 C 5.339844 10.394531 6.320312 10.761719 7.097656 10.761719 C 10.371094 10.761719 11.84375 7.730469 11.84375 4.996094 C 11.84375 2.089844 9.195312 0.191406 6.292969 0.191406 Z M 6.292969 0.191406 "/>
</g>
</svg>
