<svg xmlns="http://www.w3.org/2000/svg" xmlns:xlink="http://www.w3.org/1999/xlink" width="14pt" height="14pt" viewBox="0 0 14 14" version="1.1">
<g>
<path style=" stroke:none;fill-rule:nonzero;fill:rgb(0%,0%,0%);fill-opacity:1;" d="M 12.394531 5.058594 C 12.40625 5.195312 12.40625 5.332031 12.40625 5.46875 C 12.40625 10.117188 9.554688 15.378906 4.351562 15.378906 C 2.746094 15.378906 1.253906 14.832031 0 13.878906 C 0.226562 13.878906 0.445312 13.878906 0.683594 13.878906 C 2.007812 13.878906 3.226562 13.332031 4.199219 12.371094 C 2.953125 12.371094 1.910156 11.347656 1.550781 9.980469 C 1.726562 10.050781 1.902344 10.050781 2.085938 10.050781 C 2.34375 10.050781 2.59375 9.980469 2.832031 9.910156 C 1.53125 9.570312 0.5625 8.203125 0.5625 6.496094 L 0.5625 6.425781 C 0.9375 6.699219 1.378906 6.902344 1.84375 6.902344 C 1.078125 6.289062 0.578125 5.195312 0.578125 3.964844 C 0.578125 3.347656 0.71875 2.734375 0.964844 2.253906 C 2.355469 4.375 4.453125 5.742188 6.804688 5.878906 C 6.761719 5.605469 6.730469 5.332031 6.730469 5.058594 C 6.730469 3.144531 7.996094 1.574219 9.5625 1.574219 C 10.378906 1.574219 11.113281 2.050781 11.632812 2.734375 C 12.273438 2.527344 12.886719 2.253906 13.429688 1.847656 C 13.21875 2.667969 12.773438 3.347656 12.1875 3.761719 C 12.753906 3.691406 13.308594 3.488281 13.816406 3.214844 C 13.429688 3.964844 12.949219 4.511719 12.394531 5.058594 Z M 12.394531 5.058594 "/>
</g>
</svg>
